<?xml version="1.0" encoding="UTF-8" standalone="no"?>
<!-- Created with Inkscape (http://www.inkscape.org/) -->
<svg xmlns:dc="http://purl.org/dc/elements/1.1/" xmlns:cc="http://creativecommons.org/ns#" xmlns:rdf="http://www.w3.org/1999/02/22-rdf-syntax-ns#" xmlns:svg="http://www.w3.org/2000/svg" xmlns="http://www.w3.org/2000/svg" xmlns:sodipodi="http://sodipodi.sourceforge.net/DTD/sodipodi-0.dtd" xmlns:inkscape="http://www.inkscape.org/namespaces/inkscape" width="800px" height="600px" id="svg3866" version="1.1" inkscape:version="0.47 r22583" sodipodi:docname="New document 5">
  <defs id="defs3868">
    <inkscape:perspective sodipodi:type="inkscape:persp3d" inkscape:vp_x="0 : 300 : 1" inkscape:vp_y="0 : 1000 : 0" inkscape:vp_z="800 : 300 : 1" inkscape:persp3d-origin="400 : 200 : 1" id="perspective3874"/>
    <inkscape:perspective id="perspective3884" inkscape:persp3d-origin="0.5 : 0.33333333 : 1" inkscape:vp_z="1 : 0.5 : 1" inkscape:vp_y="0 : 1000 : 0" inkscape:vp_x="0 : 0.5 : 1" sodipodi:type="inkscape:persp3d"/>
  </defs>
  <sodipodi:namedview id="base" pagecolor="#ffffff" bordercolor="#666666" borderopacity="1.0" inkscape:pageopacity="0.0" inkscape:pageshadow="2" inkscape:zoom="0.6" inkscape:cx="179.90536" inkscape:cy="295.32321" inkscape:current-layer="layer1" inkscape:document-units="px" showgrid="false" inkscape:window-width="1280" inkscape:window-height="748" inkscape:window-x="-2" inkscape:window-y="0" inkscape:window-maximized="1"/>
  <g id="layer1" inkscape:label="Layer 1" inkscape:groupmode="layer">
    <g id="g4683">
      <g transform="matrix(1.0284552,0,0,0.99997628,-10.227262,0.00717649)" style="stroke:none;stroke-opacity:1;opacity:1" id="g3908">
        <rect style="fill:#ffffff;fill-opacity:1;fill-rule:evenodd;stroke:none;stroke-opacity:1" id="rect3906" width="745" height="595.00006" x="28.333334" y="5"/>
      </g>
      <g id="g3697" transform="matrix(3.9718165,0,0,3.9247704,-1030.3692,1039.1394)" style="stroke:none;display:inline">
        <rect y="-264.37805" x="266.54065" height="150.30089" width="189.7683" id="rect3699" style="fill:#ffffff;fill-opacity:1;fill-rule:evenodd;stroke:none"/>
        <path style="fill:#000000;stroke:none" d="m 268.78649,-115.99071 c -0.16117,-0.16767 -0.29304,-0.58733 -0.29304,-0.93256 0,-0.87447 0.35545,-1.07539 2.14359,-1.21169 2.67521,-0.20393 4.08564,-1.34272 4.03541,-3.25823 -0.0424,-1.6183 -1.44021,-2.4712 -3.69261,-2.25315 -1.46327,0.14166 -1.75493,0.0474 -2.02142,-0.65357 -0.27035,-0.71106 0.1282,-5.66979 0.49081,-6.10671 0.21178,-0.25518 1.02649,-0.32989 3.59744,-0.32989 3.56689,0 3.88629,0.0963 3.88629,1.17215 0,1.02573 -0.3719,1.17216 -2.97727,1.17216 l -2.41464,0 -0.003,0.64468 c -0.002,0.35458 -0.0627,0.86617 -0.13533,1.13687 -0.12082,0.45006 -0.01,0.50497 1.29846,0.6417 3.06117,0.31996 4.59588,2.08278 4.42628,5.08421 -0.12043,2.13129 -0.88097,3.24241 -2.89956,4.23615 -1.69838,0.83612 -4.89803,1.22297 -5.44121,0.65788 z m 23.27704,0.0868 c -0.87914,-0.22331 -1.51392,-0.81253 -2.03497,-1.88887 -1.03545,-2.13896 -0.85526,-9.60411 0.27601,-11.43453 0.70381,-1.1388 1.42699,-1.39196 3.97628,-1.39196 2.55155,0 3.27858,0.25504 3.96776,1.39188 1.36646,2.25405 1.29477,10.04407 -0.11221,12.19138 -0.55449,0.84626 -1.97017,1.30718 -3.9189,1.27591 -0.93219,-0.015 -1.90147,-0.0797 -2.15397,-0.14381 z m 3.84274,-2.58356 c 1.20662,-0.97982 1.20258,-8.50376 -0.005,-9.49445 -0.71247,-0.58446 -2.81414,-0.56505 -3.35354,0.031 -0.60973,0.67376 -0.9621,4.38103 -0.66152,6.95986 0.19612,1.68256 0.34042,2.15749 0.75837,2.49593 0.69063,0.55924 2.57711,0.56369 3.26179,0.008 z m 10.53865,2.2365 c -0.20442,-0.38197 -0.23427,-1.92957 -0.11362,-5.89112 l 0.16364,-5.37306 -1.09979,0.96808 c -1.56171,1.37467 -2.90922,1.27762 -2.90922,-0.20954 0,-0.48197 0.42737,-0.97889 1.97587,-2.29743 1.72568,-1.46941 2.09309,-1.68244 2.90168,-1.68244 0.5092,0 1.04877,0.14815 1.19905,0.32923 0.19801,0.23858 0.25432,2.242 0.20453,7.27614 -0.0747,7.55367 -0.043,7.38691 -1.40844,7.39462 -0.41904,0.002 -0.73115,-0.17338 -0.9137,-0.51448 z m 8.9816,0.23675 c -0.34935,-0.34935 -0.3646,-2.57415 -0.026,-3.79358 0.31937,-1.15023 1.9986,-2.9612 3.7095,-4.00051 1.75187,-1.0642 2.44297,-1.83354 2.44297,-2.71953 0,-1.62104 -1.92154,-2.29456 -3.99793,-1.40131 -1.83729,0.79037 -2.90592,0.3769 -2.56248,-0.99147 0.31854,-1.26916 4.09458,-2.25338 6.10266,-1.59066 2.58404,0.85281 3.67551,3.53721 2.45954,6.04907 -0.37733,0.77945 -0.93084,1.3256 -2.27277,2.24251 -2.42941,1.65996 -3.29507,2.48521 -3.54613,3.38058 l -0.21363,0.76191 2.98435,0 c 3.20743,0 3.54699,0.11221 3.54699,1.17215 0,1.09725 -0.28465,1.17215 -4.45419,1.17215 -2.71419,0 -3.97667,-0.0851 -4.17287,-0.28131 z m 13.66732,0.0636 c -1.27997,-0.3089 -1.75823,-0.69049 -1.75823,-1.40285 0,-1.10926 0.48918,-1.32118 2.24436,-0.97231 2.02698,0.4029 3.49685,0.16976 4.35782,-0.6912 1.62753,-1.62754 0.16359,-3.98328 -2.47537,-3.98328 -0.44621,0 -0.97707,-0.16578 -1.17968,-0.3684 -0.68496,-0.68495 -0.4234,-1.3874 1.18316,-3.17749 l 1.55156,-1.72881 -2.58804,-0.11721 c -1.42342,-0.0645 -2.66667,-0.19634 -2.76278,-0.29304 -0.30223,-0.30409 -0.18981,-1.61413 0.15736,-1.83388 0.18267,-0.11562 2.08622,-0.21183 4.23013,-0.2138 4.32,-0.004 4.45198,0.0396 4.49295,1.48513 0.0188,0.66301 -0.22274,1.07355 -1.41776,2.40978 l -1.44041,1.61062 0.77343,0.39778 c 1.0966,0.56398 2.18598,1.89125 2.4954,3.04033 0.689,2.55876 -0.82449,5.07515 -3.49935,5.81816 -0.95604,0.26556 -3.30335,0.27657 -4.36455,0.0205 z m 16.77812,-0.002 c -0.20857,-0.13199 -0.37432,-0.75102 -0.43843,-1.63743 l -0.10309,-1.42525 -2.38647,0 c -1.54356,0 -2.48582,-0.0994 -2.66778,-0.28132 -0.68363,-0.68363 -0.27382,-2.12525 1.91924,-6.75134 2.22082,-4.68464 2.37595,-4.88553 3.54592,-4.59188 1.07273,0.26923 0.95055,0.90658 -0.96168,5.01652 -1.00109,2.15164 -1.86047,3.99119 -1.90973,4.08789 -0.0493,0.0967 0.49688,0.17582 1.21364,0.17582 l 1.30321,0 0,-1.00277 c 0,-1.29237 0.51945,-2.04483 1.41163,-2.04483 0.84701,0 1.16711,0.54229 1.16711,1.97725 0,1.016 0.0333,1.07035 0.6564,1.07035 0.81948,0 1.21904,0.3842 1.21904,1.17216 0,0.78795 -0.39956,1.17215 -1.21904,1.17215 -0.63253,0 -0.6564,0.0432 -0.6564,1.18757 0,0.65316 -0.10921,1.39162 -0.24268,1.64101 -0.25813,0.48232 -1.25866,0.60885 -1.85089,0.23406 z m 7.54409,-0.0384 c -0.16118,-0.16767 -0.29304,-0.58733 -0.29304,-0.93256 0,-0.87447 0.35545,-1.07539 2.14358,-1.21169 2.67522,-0.20393 4.08565,-1.34272 4.03542,-3.25823 -0.0424,-1.6183 -1.44021,-2.4712 -3.69261,-2.25315 -1.46327,0.14166 -1.75493,0.0474 -2.02143,-0.65357 -0.27034,-0.71106 0.1282,-5.66979 0.49081,-6.10671 0.21179,-0.25518 1.02649,-0.32989 3.59745,-0.32989 3.56688,0 3.88629,0.0963 3.88629,1.17215 0,1.02573 -0.37191,1.17216 -2.97727,1.17216 l -2.41464,0 -0.003,0.64468 c -0.002,0.35458 -0.0627,0.86617 -0.13533,1.13687 -0.12082,0.45006 -0.01,0.50497 1.29845,0.6417 3.06118,0.31996 4.59588,2.08278 4.42629,5.08421 -0.12043,2.13129 -0.88097,3.24241 -2.89956,4.23615 -1.69838,0.83612 -4.89803,1.22297 -5.44121,0.65788 z m 23.50169,-0.18531 c -2.38474,-1.10063 -3.28821,-3.80711 -2.33846,-7.00525 0.73095,-2.46138 4.73911,-7.55524 5.94492,-7.55524 0.35022,0 0.76333,0.12659 0.91806,0.28131 0.60136,0.60135 0.28021,1.39805 -1.28789,3.19508 l -1.56924,1.7983 1.2762,0.13905 c 2.67535,0.29151 4.02293,1.65262 4.16738,4.20926 0.0493,0.87278 -0.0288,1.94593 -0.17366,2.38478 -0.32762,0.99272 -1.75402,2.37809 -2.81114,2.73029 -1.18249,0.39398 -3.06314,0.31304 -4.12617,-0.17758 z m 4.00479,-2.62279 c 1.27778,-1.20041 0.8692,-3.44167 -0.72325,-3.96721 -1.8853,-0.62221 -3.51597,0.4081 -3.51597,2.22153 0,1.05963 0.50105,1.86382 1.40659,2.25762 0.75136,0.32675 2.22299,0.0608 2.83263,-0.51194 z m 8.50738,2.6756 c -0.43487,-0.52751 -0.34162,-3.70444 0.15967,-5.43866 0.46143,-1.59645 1.54077,-3.41635 3.14716,-5.30653 l 1.19541,-1.40659 -3.21679,-0.0655 c -1.88349,-0.0384 -3.34477,-0.17171 -3.52554,-0.32175 -0.38587,-0.32023 -0.40265,-1.41774 -0.0274,-1.79296 0.19879,-0.19881 1.57143,-0.28131 4.68036,-0.28131 4.1093,0 4.41504,0.0299 4.64173,0.45345 0.67685,1.26471 0.14666,2.76867 -1.78526,5.06407 -0.76352,0.90717 -1.61171,2.01486 -1.88489,2.46152 -0.72557,1.18643 -1.24464,3.16246 -1.24464,4.73819 0,0.75869 -0.10922,1.5835 -0.24269,1.83289 -0.30361,0.56729 -1.45004,0.60547 -1.8971,0.0632 z m 12.84278,0.0483 c -1.77654,-0.63342 -2.73234,-1.9891 -2.73234,-3.8755 0,-1.42015 0.64342,-2.81829 1.63403,-3.55068 l 0.69253,-0.512 -0.69849,-0.71443 c -0.90281,-0.92341 -1.25591,-2.20053 -0.93645,-3.38693 0.43004,-1.59702 2.08425,-2.62208 4.23143,-2.62208 3.78099,0 5.60543,3.19611 3.35269,5.87335 l -0.61463,0.73043 0.60713,0.50761 c 1.62334,1.35725 2.10172,3.96587 1.06539,5.80975 -1.01082,1.79854 -4.13112,2.62122 -6.60129,1.74048 z m 4.22817,-2.80583 c 0.2977,-0.34609 0.54088,-0.86073 0.54039,-1.14365 -0.002,-0.80577 -0.77742,-1.87856 -1.72952,-2.3908 l -0.86967,-0.46791 -0.86108,0.49895 c -1.06209,0.61543 -1.78046,1.89738 -1.55859,2.78134 0.39421,1.57074 3.33996,2.04569 4.47847,0.72207 z m -0.88329,-7.30523 c 1.2046,-1.01361 0.84079,-1.91859 -0.85194,-2.1193 -1.90131,-0.22543 -2.76645,1.01696 -1.46862,2.10901 0.92028,0.77438 1.40991,0.77655 2.32056,0.0103 z m 9.20767,10.1717 c -0.57309,-0.57308 -0.26448,-1.35698 1.246,-3.1651 l 1.52732,-1.82828 -1.3352,-0.17268 c -2.61524,-0.33822 -4.06867,-2.04489 -4.05861,-4.76578 0.0115,-3.09595 1.92831,-5.03235 4.969,-5.01971 3.07632,0.0128 4.87808,1.98274 4.86639,5.32063 -0.009,2.57909 -1.38247,5.22339 -4.46467,8.5958 -1.23479,1.35107 -2.10627,1.67907 -2.75023,1.03512 z m 4.15004,-8.26323 c 0.84613,-0.84615 0.86847,-2.62849 0.044,-3.50617 -1.23381,-1.31331 -3.46754,-0.9257 -4.15562,0.7211 -0.58741,1.40589 -0.0103,2.90805 1.32132,3.43967 0.73687,0.29415 2.18016,-0.0444 2.79034,-0.6546 z m 8.58934,8.37354 c -0.87914,-0.22331 -1.51393,-0.81253 -2.03498,-1.88887 -1.03546,-2.13896 -0.85525,-9.60411 0.27602,-11.43453 0.70381,-1.1388 1.42698,-1.39196 3.97628,-1.39196 2.55154,0 3.27856,0.25504 3.96776,1.39188 1.36645,2.25405 1.29476,10.04407 -0.11222,12.19138 -0.5545,0.84626 -1.97016,1.30718 -3.91891,1.27591 -0.93217,-0.015 -1.90147,-0.0797 -2.15395,-0.14381 z m 3.84274,-2.58356 c 1.20662,-0.97982 1.20256,-8.50376 -0.005,-9.49445 -0.71248,-0.58446 -2.81415,-0.56505 -3.35353,0.031 -0.60975,0.67376 -0.96213,4.38103 -0.66154,6.95986 0.19612,1.68256 0.34044,2.15749 0.75836,2.49593 0.69066,0.55924 2.57712,0.56369 3.2618,0.008 z m 8.81652,2.58356 c -0.87913,-0.22331 -1.51392,-0.81253 -2.03497,-1.88887 -1.03546,-2.13896 -0.85525,-9.60411 0.27602,-11.43453 0.70381,-1.1388 1.42698,-1.39196 3.97627,-1.39196 3.19834,0 3.97927,0.51773 4.59697,3.0476 0.2275,0.93175 0.29028,-12.68758 0.30612,-66.40255 l 0.0199,-67.57471 1.05494,0 1.05494,0 0,67.86775 0,67.86775 -1.05494,0 -1.05494,0 0,2.76391 c 0,2.84398 -0.37504,4.95669 -1.0675,6.01351 -0.5545,0.84626 -1.97016,1.30718 -3.91892,1.27591 -0.93216,-0.015 -1.90146,-0.0797 -2.15395,-0.14381 z m 3.84274,-2.58356 c 1.20662,-0.97982 1.20256,-8.50376 -0.005,-9.49445 -0.71248,-0.58446 -2.81415,-0.56505 -3.35353,0.031 -0.60975,0.67376 -0.96212,4.38103 -0.66154,6.95986 0.19612,1.68256 0.34044,2.15749 0.75836,2.49593 0.69066,0.55924 2.57712,0.56369 3.2618,0.008 z m -162.67947,-75.19371 0,-67.86775 1.05494,0 1.05494,0 0,67.86775 0,67.86775 -1.05494,0 -1.05494,0 0,-67.86775 z m 3.51646,0 0,-67.86775 1.05494,0 1.05494,0 0,67.86775 0,67.86775 -1.05494,0 -1.05494,0 0,-67.86775 z m 79.47208,0 0,-67.86775 1.05494,0 1.05494,0 0,67.86775 0,67.86775 -1.05494,0 -1.05494,0 0,-67.86775 z m 3.51646,0 0,-67.86775 1.05494,0 1.05494,0 0,67.86775 0,67.86775 -1.05494,0 -1.05494,0 0,-67.86775 z m 82.98856,0 0,-67.86775 0.82051,0 0.8205,0 0,67.86775 0,67.86775 -0.8205,0 -0.82051,0 0,-67.86775 z m -158.70974,-4.57141 0,-63.29634 1.99266,0 1.99267,0 0,63.29634 0,63.29635 -1.99267,0 -1.99266,0 0,-63.29635 z m 5.39191,0 0,-63.29634 1.05494,0 1.05494,0 0,63.29634 0,63.29635 -1.05494,0 -1.05494,0 0,-63.29635 z m 3.51647,0 0,-63.29634 1.99266,0 1.99266,0 0,63.29634 0,63.29635 -1.99266,0 -1.99266,0 0,-63.29635 z m 7.26735,0 0,-63.29634 1.99267,0 1.99266,0 0,63.29634 0,63.29635 -1.99266,0 -1.99267,0 0,-63.29635 z m 7.26736,0 0,-63.29634 1.99267,0 1.99266,0 0,63.29634 0,63.29635 -1.99266,0 -1.99267,0 0,-63.29635 z m 5.39191,0 0,-63.29634 1.99267,0 1.99266,0 0,63.29634 0,63.29635 -1.99266,0 -1.99267,0 0,-63.29635 z m 5.39191,0 0,-63.29634 3.86811,0 3.86811,0 0,63.29634 0,63.29635 -3.86811,0 -3.86811,0 0,-63.29635 z m 9.14281,0 0,-63.29634 1.05494,0 1.05494,0 0,63.29634 0,63.29635 -1.05494,0 -1.05494,0 0,-63.29635 z m 3.51646,0 0,-63.29634 1.05494,0 1.05494,0 0,63.29634 0,63.29635 -1.05494,0 -1.05494,0 0,-63.29635 z m 7.26736,0 0,-63.29634 1.99266,0 1.99267,0 0,63.29634 0,63.29635 -1.99267,0 -1.99266,0 0,-63.29635 z m 5.39191,0 0,-63.29634 2.93039,0 2.93038,0 0,63.29634 0,63.29635 -2.93038,0 -2.93039,0 0,-63.29635 z m 9.14281,0 0,-63.29634 1.05494,0 1.05494,0 0,63.29634 0,63.29635 -1.05494,0 -1.05494,0 0,-63.29635 z m 10.54939,0 0,-63.29634 1.05494,0 1.05494,0 0,63.29634 0,63.29635 -1.05494,0 -1.05494,0 0,-63.29635 z m 3.51646,0 0,-63.29634 1.05494,0 1.05494,0 0,63.29634 0,63.29635 -1.05494,0 -1.05494,0 0,-63.29635 z m 9.14283,0 0,-63.29634 1.05494,0 1.05494,0 0,63.29634 0,63.29635 -1.05494,0 -1.05494,0 0,-63.29635 z m 7.26736,0 0,-63.29634 1.05494,0 1.05493,0 0,63.29634 0,63.29635 -1.05493,0 -1.05494,0 0,-63.29635 z m 5.39191,0 0,-63.29634 1.05494,0 1.05494,0 0,63.29634 0,63.29635 -1.05494,0 -1.05494,0 0,-63.29635 z m 5.39191,0 0,-63.29634 1.05494,0 1.05494,0 0,63.29634 0,63.29635 -1.05494,0 -1.05494,0 0,-63.29635 z m 7.26736,0 0,-63.29634 2.93038,0 2.93039,0 0,63.29634 0,63.29635 -2.93039,0 -2.93038,0 0,-63.29635 z m 7.26735,0 0,-63.29634 1.05494,0 1.05494,0 0,63.29634 0,63.29635 -1.05494,0 -1.05494,0 0,-63.29635 z m 5.39192,0 0,-63.29634 2.93038,0 2.93039,0 0,63.29634 0,63.29635 -2.93039,0 -2.93038,0 0,-63.29635 z m 9.1428,0 0,-63.29634 1.05494,0 1.05494,0 0,63.29634 0,63.29635 -1.05494,0 -1.05494,0 0,-63.29635 z m 3.51646,0 0,-63.29634 2.93039,0 2.93038,0 0,63.29634 0,63.29635 -2.93038,0 -2.93039,0 0,-63.29635 z m 9.1428,0 0,-63.29634 1.05494,0 1.05494,0 0,63.29634 0,63.29635 -1.05494,0 -1.05494,0 0,-63.29635 z" id="path3701"/>
      </g>
    </g>
  </g>
  <metadata>
    <rdf:RDF>
      <cc:Work>
        <dc:format>image/svg+xml</dc:format>
        <dc:type rdf:resource="http://purl.org/dc/dcmitype/StillImage"/>
        <cc:license rdf:resource="http://creativecommons.org/licenses/publicdomain/"/>
        <dc:publisher>
          <cc:Agent rdf:about="http://openclipart.org/">
            <dc:title>Open Clip Art Library</dc:title>
          </cc:Agent>
        </dc:publisher>
        <dc:title>codigde barras </dc:title>
        <dc:date>2010-08-23T14:56:03</dc:date>
        <dc:description>codigde, codigo de barras</dc:description>
        <dc:source>http://openclipart.org/detail/81883/codigde-barras--by-asrafil</dc:source>
        <dc:creator>
          <cc:Agent>
            <dc:title>asrafil</dc:title>
          </cc:Agent>
        </dc:creator>
        <dc:subject>
          <rdf:Bag>
            <rdf:li>barcode</rdf:li>
            <rdf:li>black and white</rdf:li>
            <rdf:li>clip art</rdf:li>
            <rdf:li>clipart</rdf:li>
            <rdf:li>cod</rdf:li>
            <rdf:li>codigde</rdf:li>
            <rdf:li>codigo de barras</rdf:li>
          </rdf:Bag>
        </dc:subject>
      </cc:Work>
      <cc:License rdf:about="http://creativecommons.org/licenses/publicdomain/">
        <cc:permits rdf:resource="http://creativecommons.org/ns#Reproduction"/>
        <cc:permits rdf:resource="http://creativecommons.org/ns#Distribution"/>
        <cc:permits rdf:resource="http://creativecommons.org/ns#DerivativeWorks"/>
      </cc:License>
    </rdf:RDF>
  </metadata>
</svg>
